<?xml version="1.0" encoding="UTF-8" standalone="no"?>
<svg
   aria-hidden="true"
   focusable="false"
   data-prefix="fas"
   data-icon="vr-cardboard"
   class="svg-inline--fa fa-vr-cardboard"
   role="img"
   viewBox="0 0 640 512"
   version="1.1"
   id="svg4"
   sodipodi:docname="vr-cardboard-solid.svg"
   inkscape:version="1.1.1 (3bf5ae0d25, 2021-09-20)"
   xmlns:inkscape="http://www.inkscape.org/namespaces/inkscape"
   xmlns:sodipodi="http://sodipodi.sourceforge.net/DTD/sodipodi-0.dtd"
   xmlns="http://www.w3.org/2000/svg"
   xmlns:svg="http://www.w3.org/2000/svg">
  <defs
     id="defs8" />
  <sodipodi:namedview
     id="namedview6"
     pagecolor="#ffffff"
     bordercolor="#666666"
     borderopacity="1.0"
     inkscape:pageshadow="2"
     inkscape:pageopacity="0.0"
     inkscape:pagecheckerboard="0"
     showgrid="false"
     inkscape:zoom="1.1490485"
     inkscape:cx="295.46185"
     inkscape:cy="208.43332"
     inkscape:window-width="1920"
     inkscape:window-height="1057"
     inkscape:window-x="1912"
     inkscape:window-y="-8"
     inkscape:window-maximized="1"
     inkscape:current-layer="svg4" />
  <path
     fill="currentColor"
     d="M 519.14138,106.64398 H 120.85862 c -27.381937,0 -49.785343,22.4034 -49.785343,49.78534 V 355.5707 c 0,27.38194 22.403406,49.78535 49.785343,49.78535 l 99.80406,7e-5 c 19.58742,0 37.36235,-11.48952 45.40579,-29.35002 l 21.59439,-47.95728 c 6.12593,-13.61318 18.6695,-22.27117 32.38382,-22.27117 13.7143,0 26.25398,8.65799 32.3838,22.27117 l 21.58662,47.94173 c 8.05122,17.87605 25.82614,29.36557 45.42913,29.36557 l 99.69515,-7e-5 c 27.38193,0 49.78533,-22.40341 49.78533,-49.78535 V 156.42932 c 0,-27.38194 -22.4034,-49.78534 -49.78533,-49.78534 z M 195.53664,293.33902 c -27.52196,0 -49.78535,-22.27116 -49.78535,-49.78534 0,-27.51419 22.26339,-49.08524 49.78535,-49.08524 27.52196,0 49.78534,22.26338 49.78534,49.08524 0,26.82185 -22.24782,49.78534 -49.78534,49.78534 z m 248.92672,0 c -27.52196,0 -49.78534,-22.27116 -49.78534,-49.78534 0,-27.51419 22.26338,-49.08524 49.78534,-49.08524 27.52196,0 49.78535,22.26338 49.78535,49.08524 0,26.82185 -22.24783,49.78534 -49.78535,49.78534 z"
     id="path2"
     style="fill:#ffffff;fill-opacity:1;stroke-width:0.777896" />
</svg>
